<?xml version="1.0" encoding="UTF-8" standalone="no"?>
<!-- Created with Inkscape (http://www.inkscape.org/) -->

<svg
   xmlns:dc="http://purl.org/dc/elements/1.1/"
   xmlns:cc="http://creativecommons.org/ns#"
   xmlns:rdf="http://www.w3.org/1999/02/22-rdf-syntax-ns#"
   xmlns:svg="http://www.w3.org/2000/svg"
   xmlns="http://www.w3.org/2000/svg"
   xmlns:sodipodi="http://sodipodi.sourceforge.net/DTD/sodipodi-0.dtd"
   xmlns:inkscape="http://www.inkscape.org/namespaces/inkscape"
   version="1.1"
   id="svg2"
   xml:space="preserve"
   width="128"
   height="128"
   viewBox="0 0 128 128"
   sodipodi:docname="favicon.svg"
   inkscape:version="0.92.1 r15371"><metadata
     id="metadata8"><rdf:RDF><cc:Work
         rdf:about=""><dc:format>image/svg+xml</dc:format><dc:type
           rdf:resource="http://purl.org/dc/dcmitype/StillImage" /><dc:title></dc:title></cc:Work></rdf:RDF></metadata><defs
     id="defs6"><clipPath
       clipPathUnits="userSpaceOnUse"
       id="clipPath20"><path
         d="M -9,-9 H 198 V 270 H -9 Z"
         id="path18"
         inkscape:connector-curvature="0" /></clipPath><clipPath
       clipPathUnits="userSpaceOnUse"
       id="clipPath36"><path
         d="M -9,-9 H 198 V 270 H -9 Z"
         id="path34"
         inkscape:connector-curvature="0" /></clipPath><clipPath
       clipPathUnits="userSpaceOnUse"
       id="clipPath50"><path
         d="M -9,-9 H 198 V 270 H -9 Z"
         id="path48"
         inkscape:connector-curvature="0" /></clipPath></defs><sodipodi:namedview
     pagecolor="#ffffff"
     bordercolor="#666666"
     borderopacity="1"
     objecttolerance="10"
     gridtolerance="10"
     guidetolerance="10"
     inkscape:pageopacity="0"
     inkscape:pageshadow="2"
     inkscape:window-width="1864"
     inkscape:window-height="912"
     id="namedview4"
     showgrid="false"
     showguides="true"
     inkscape:guide-bbox="true"
     inkscape:zoom="7.4167644"
     inkscape:cx="87.67388"
     inkscape:cy="72.264385"
     inkscape:window-x="49"
     inkscape:window-y="24"
     inkscape:window-maximized="0"
     inkscape:current-layer="g12"><sodipodi:guide
       position="64.067797,163.22034"
       orientation="1,0"
       id="guide4630"
       inkscape:locked="false" /><sodipodi:guide
       position="32.033898,64.830509"
       orientation="0,1"
       id="guide4632"
       inkscape:locked="false" /></sodipodi:namedview><g
     id="g10"
     inkscape:groupmode="layer"
     inkscape:label="malicious-content-cover2"
     transform="matrix(1.3333333,0,0,-1.3333333,0,128)"><g
       id="g12"
       transform="translate(9,9)"><g
         id="g22"
         transform="matrix(0.40774267,0,0,0.27272977,-2.4798727,14.839803)"><g
           id="g24"
           transform="matrix(1.1887479,0,0,1.3042957,-15.396416,264.09588)"><path
             d="M 0,0 H 197 V -269 H 0 Z"
             style="fill:#dd5748;fill-opacity:1;fill-rule:evenodd;stroke:none"
             id="path26"
             inkscape:connector-curvature="0" /><path
             d="M 0,0 H 197 V -269 H 0 Z"
             style="fill:none;stroke:#dd5748;stroke-width:1;stroke-linecap:butt;stroke-linejoin:miter;stroke-miterlimit:10;stroke-dasharray:none;stroke-opacity:1"
             id="path28"
             inkscape:connector-curvature="0" /></g></g><g
         id="g30"
         transform="matrix(0.48577048,0,0,0.35621522,-4.6280657,-5.7946329)"><g
           id="g32"
           clip-path="url(#clipPath36)"><g
             id="g38"><g
               id="g40"
               transform="translate(-10.1258,260.5016)"><path
                 d="M 198.75,0 0,-269.5 h 198.75 z"
                 style="fill:#1c63b7;fill-opacity:1;fill-rule:evenodd;stroke:none"
                 id="path42"
                 inkscape:connector-curvature="0" /></g></g></g></g><g
         id="g136"
         transform="matrix(0.88443759,0,0,0.88443759,-19.31996,-11.853253)"><g
           id="g138"
           transform="translate(15.96795,100.0016)"><path
             d="m 99,-26.6546 v -15.2312 c 0,-1.0313 -0.3766,-1.9237 -1.1304,-2.6774 -0.7538,-0.7536 -1.6462,-1.1304 -2.6773,-1.1304 h -3.8077 c -1.031,0 -1.9235,0.3768 -2.6773,1.1304 -0.7538,0.7537 -1.1304,1.6461 -1.1304,2.6774 v 15.2312 c 0,4.2045 -1.4874,7.7941 -4.4621,10.7689 -2.9748,2.9749 -6.5641,4.4623 -10.7686,4.4623 -4.2046,0 -7.7939,-1.4874 -10.7687,-4.4623 -2.9747,-2.9748 -4.4621,-6.5644 -4.4621,-10.7689 V -38.078 h 5.7115 c 1.5868,0 2.9349,-0.5553 4.0457,-1.6659 1.1108,-1.1107 1.6659,-2.4592 1.6659,-4.0458 v -34.2702 c 0,-1.5868 -0.5551,-2.935 -1.6659,-4.0458 -1.1108,-1.1108 -2.4589,-1.666 -4.0457,-1.666 H 5.71154 c -1.58654,0 -2.9351,0.5552 -4.04567,1.666 C 0.55529,-80.9949 0,-79.6467 0,-78.0599 v 34.2702 c 0,1.5866 0.55529,2.9351 1.66587,4.0458 1.11057,1.1106 2.45913,1.6659 4.04567,1.6659 H 45.6923 v 11.4234 c 0,7.3379 2.6079,13.6148 7.8236,18.83076 C 58.7317,-2.60795 65.0086,0 72.3462,0 79.6837,0 85.9604,-2.60795 91.1764,-7.82384 96.3923,-13.0398 99,-19.3167 99,-26.6546 Z"
             style="fill:#231f20;fill-opacity:1;fill-rule:nonzero;stroke:none"
             id="path140"
             inkscape:connector-curvature="0" /></g></g></g></g></svg>