<?xml version="1.0" encoding="UTF-8" standalone="no"?>
<!-- Created with Inkscape (http://www.inkscape.org/) -->

<svg
   xmlns:dc="http://purl.org/dc/elements/1.1/"
   xmlns:cc="http://creativecommons.org/ns#"
   xmlns:rdf="http://www.w3.org/1999/02/22-rdf-syntax-ns#"
   xmlns:svg="http://www.w3.org/2000/svg"
   xmlns="http://www.w3.org/2000/svg"
   xmlns:sodipodi="http://sodipodi.sourceforge.net/DTD/sodipodi-0.dtd"
   xmlns:inkscape="http://www.inkscape.org/namespaces/inkscape"
   version="1.1"
   id="svg2"
   xml:space="preserve"
   width="360"
   height="500"
   viewBox="0 0 360 500"
   sodipodi:docname="malicious-content-coverart.svg"
   inkscape:version="0.92.1 r15371"><metadata
     id="metadata8"><rdf:RDF><cc:Work
         rdf:about=""><dc:format>image/svg+xml</dc:format><dc:type
           rdf:resource="http://purl.org/dc/dcmitype/StillImage" /><dc:title></dc:title></cc:Work></rdf:RDF></metadata><defs
     id="defs6"><clipPath
       clipPathUnits="userSpaceOnUse"
       id="clipPath20"><path
         d="M -9,-9 H 198 V 270 H -9 Z"
         id="path18"
         inkscape:connector-curvature="0" /></clipPath><clipPath
       clipPathUnits="userSpaceOnUse"
       id="clipPath36"><path
         d="M -9,-9 H 198 V 270 H -9 Z"
         id="path34"
         inkscape:connector-curvature="0" /></clipPath><clipPath
       clipPathUnits="userSpaceOnUse"
       id="clipPath50"><path
         d="M -9,-9 H 198 V 270 H -9 Z"
         id="path48"
         inkscape:connector-curvature="0" /></clipPath></defs><sodipodi:namedview
     pagecolor="#ffffff"
     bordercolor="#666666"
     borderopacity="1"
     objecttolerance="10"
     gridtolerance="10"
     guidetolerance="10"
     inkscape:pageopacity="0"
     inkscape:pageshadow="2"
     inkscape:window-width="1675"
     inkscape:window-height="927"
     id="namedview4"
     showgrid="false"
     inkscape:zoom="0.65555556"
     inkscape:cx="130.47458"
     inkscape:cy="180"
     inkscape:window-x="49"
     inkscape:window-y="24"
     inkscape:window-maximized="0"
     inkscape:current-layer="g10" /><g
     id="g10"
     inkscape:groupmode="layer"
     inkscape:label="malicious-content-cover2"
     transform="matrix(1.3333333,0,0,-1.3333333,0,500)"><g
       id="g12"
       transform="matrix(1.3939398,0,0,1.3939398,12.545458,12.544828)"><g
         id="g14"><g
           id="g16"
           clip-path="url(#clipPath20)"><g
             id="g22"><g
               id="g24"
               transform="translate(-8.51642,260.58932)"><path
                 d="M 0,0 H 197 V -269 H 0 Z"
                 style="fill:#dd5748;fill-opacity:1;fill-rule:evenodd;stroke:none"
                 id="path26"
                 inkscape:connector-curvature="0" /><path
                 d="M 0,0 H 197 V -269 H 0 Z"
                 style="fill:none;stroke:#dd5748;stroke-width:1;stroke-linecap:butt;stroke-linejoin:miter;stroke-miterlimit:10;stroke-dasharray:none;stroke-opacity:1"
                 id="path28"
                 inkscape:connector-curvature="0" /></g></g></g></g><g
         id="g30"><g
           id="g32"
           clip-path="url(#clipPath36)"><g
             id="g38"><g
               id="g40"
               transform="translate(-10.1258,260.5016)"><path
                 d="M 198.75,0 0,-269.5 h 198.75 z"
                 style="fill:#1c63b7;fill-opacity:1;fill-rule:evenodd;stroke:none"
                 id="path42"
                 inkscape:connector-curvature="0" /></g></g></g></g><g
         id="g44"><g
           id="g46"
           clip-path="url(#clipPath50)"><g
             id="g52"><g
               id="g54"
               transform="translate(15.96795,100.0016)"><path
                 d="m 99,-26.6546 v -15.2312 c 0,-1.0313 -0.3766,-1.9237 -1.1304,-2.6774 -0.7538,-0.7536 -1.6462,-1.1304 -2.6773,-1.1304 h -3.8077 c -1.031,0 -1.9235,0.3768 -2.6773,1.1304 -0.7538,0.7537 -1.1304,1.6461 -1.1304,2.6774 v 15.2312 c 0,4.2045 -1.4874,7.7941 -4.4621,10.7689 -2.9748,2.9749 -6.5641,4.4623 -10.7686,4.4623 -4.2046,0 -7.7939,-1.4874 -10.7687,-4.4623 -2.9747,-2.9748 -4.4621,-6.5644 -4.4621,-10.7689 V -38.078 h 5.7115 c 1.5868,0 2.9349,-0.5553 4.0457,-1.6659 1.1108,-1.1107 1.6659,-2.4592 1.6659,-4.0458 v -34.2702 c 0,-1.5868 -0.5551,-2.935 -1.6659,-4.0458 -1.1108,-1.1108 -2.4589,-1.666 -4.0457,-1.666 H 5.71154 c -1.58654,0 -2.9351,0.5552 -4.04567,1.666 C 0.55529,-80.9949 0,-79.6467 0,-78.0599 v 34.2702 c 0,1.5866 0.55529,2.9351 1.66587,4.0458 1.11057,1.1106 2.45913,1.6659 4.04567,1.6659 H 45.6923 v 11.4234 c 0,7.3379 2.6079,13.6148 7.8236,18.83076 C 58.7317,-2.60795 65.0086,0 72.3462,0 79.6837,0 85.9604,-2.60795 91.1764,-7.82384 96.3923,-13.0398 99,-19.3167 99,-26.6546 Z"
                 style="fill:#231f20;fill-opacity:1;fill-rule:nonzero;stroke:none"
                 id="path56"
                 inkscape:connector-curvature="0" /></g></g></g></g><g
         id="g58"><g
           id="g60"
           transform="translate(9,198.5112)"><g
             id="g62"><text
               transform="matrix(1,0,0,-1,0,-7.5)"
               style="font-variant:normal;font-weight:bold;font-size:12px;font-family:'PF Tempesta Five';-inkscape-font-specification:PFTempestaFive-Bold;writing-mode:lr-tb;fill:#231f20;fill-opacity:1;fill-rule:nonzero;stroke:none"
               id="text66"><tspan
                 x="0"
                 y="0"
                 id="tspan64">&gt;</tspan></text>
<text
               transform="matrix(1,0,0,-1,7.5,-7.5)"
               style="font-variant:normal;font-weight:bold;font-size:12px;font-family:'PF Tempesta Five';-inkscape-font-specification:PFTempestaFive-Bold;writing-mode:lr-tb;fill:#231f20;fill-opacity:1;fill-rule:nonzero;stroke:none"
               id="text70"><tspan
                 x="0"
                 y="0"
                 id="tspan68">m</tspan></text>
<text
               transform="matrix(1,0,0,-1,21,-7.5)"
               style="font-variant:normal;font-weight:bold;font-size:12px;font-family:'PF Tempesta Five';-inkscape-font-specification:PFTempestaFive-Bold;writing-mode:lr-tb;fill:#231f20;fill-opacity:1;fill-rule:nonzero;stroke:none"
               id="text74"><tspan
                 x="0"
                 y="0"
                 id="tspan72">a</tspan></text>
<text
               transform="matrix(1,0,0,-1,31.5,-7.5)"
               style="font-variant:normal;font-weight:bold;font-size:12px;font-family:'PF Tempesta Five';-inkscape-font-specification:PFTempestaFive-Bold;writing-mode:lr-tb;fill:#231f20;fill-opacity:1;fill-rule:nonzero;stroke:none"
               id="text78"><tspan
                 x="0"
                 y="0"
                 id="tspan76">l</tspan></text>
<text
               transform="matrix(1,0,0,-1,40.5,-7.5)"
               style="font-variant:normal;font-weight:bold;font-size:12px;font-family:'PF Tempesta Five';-inkscape-font-specification:PFTempestaFive-Bold;writing-mode:lr-tb;fill:#231f20;fill-opacity:1;fill-rule:nonzero;stroke:none"
               id="text82"><tspan
                 x="0"
                 y="0"
                 id="tspan80">i</tspan></text>
<text
               transform="matrix(1,0,0,-1,45,-7.5)"
               style="font-variant:normal;font-weight:bold;font-size:12px;font-family:'PF Tempesta Five';-inkscape-font-specification:PFTempestaFive-Bold;writing-mode:lr-tb;fill:#231f20;fill-opacity:1;fill-rule:nonzero;stroke:none"
               id="text86"><tspan
                 x="0"
                 y="0"
                 id="tspan84">c</tspan></text>
<text
               transform="matrix(1,0,0,-1,55.5,-7.5)"
               style="font-variant:normal;font-weight:bold;font-size:12px;font-family:'PF Tempesta Five';-inkscape-font-specification:PFTempestaFive-Bold;writing-mode:lr-tb;fill:#231f20;fill-opacity:1;fill-rule:nonzero;stroke:none"
               id="text90"><tspan
                 x="0"
                 y="0"
                 id="tspan88">i</tspan></text>
<text
               transform="matrix(1,0,0,-1,60,-7.5)"
               style="font-variant:normal;font-weight:bold;font-size:12px;font-family:'PF Tempesta Five';-inkscape-font-specification:PFTempestaFive-Bold;writing-mode:lr-tb;fill:#231f20;fill-opacity:1;fill-rule:nonzero;stroke:none"
               id="text94"><tspan
                 x="0"
                 y="0"
                 id="tspan92">o</tspan></text>
<text
               transform="matrix(1,0,0,-1,70.5,-7.5)"
               style="font-variant:normal;font-weight:bold;font-size:12px;font-family:'PF Tempesta Five';-inkscape-font-specification:PFTempestaFive-Bold;writing-mode:lr-tb;fill:#231f20;fill-opacity:1;fill-rule:nonzero;stroke:none"
               id="text98"><tspan
                 x="0"
                 y="0"
                 id="tspan96">u</tspan></text>
<text
               transform="matrix(1,0,0,-1,81,-7.5)"
               style="font-variant:normal;font-weight:bold;font-size:12px;font-family:'PF Tempesta Five';-inkscape-font-specification:PFTempestaFive-Bold;writing-mode:lr-tb;fill:#231f20;fill-opacity:1;fill-rule:nonzero;stroke:none"
               id="text102"><tspan
                 x="0"
                 y="0"
                 id="tspan100">s</tspan></text>
<text
               transform="matrix(1,0,0,-1,72,-22.5)"
               style="font-variant:normal;font-weight:bold;font-size:12px;font-family:'PF Tempesta Five';-inkscape-font-specification:PFTempestaFive-Bold;writing-mode:lr-tb;fill:#231f20;fill-opacity:1;fill-rule:nonzero;stroke:none"
               id="text106"><tspan
                 x="0"
                 y="0"
                 id="tspan104">c</tspan></text>
<text
               transform="matrix(1,0,0,-1,82.5,-22.5)"
               style="font-variant:normal;font-weight:bold;font-size:12px;font-family:'PF Tempesta Five';-inkscape-font-specification:PFTempestaFive-Bold;writing-mode:lr-tb;fill:#231f20;fill-opacity:1;fill-rule:nonzero;stroke:none"
               id="text110"><tspan
                 x="0"
                 y="0"
                 id="tspan108">o</tspan></text>
<text
               transform="matrix(1,0,0,-1,93,-22.5)"
               style="font-variant:normal;font-weight:bold;font-size:12px;font-family:'PF Tempesta Five';-inkscape-font-specification:PFTempestaFive-Bold;writing-mode:lr-tb;fill:#231f20;fill-opacity:1;fill-rule:nonzero;stroke:none"
               id="text114"><tspan
                 x="0"
                 y="0"
                 id="tspan112">n</tspan></text>
<text
               transform="matrix(1,0,0,-1,103.5,-22.5)"
               style="font-variant:normal;font-weight:bold;font-size:12px;font-family:'PF Tempesta Five';-inkscape-font-specification:PFTempestaFive-Bold;writing-mode:lr-tb;fill:#231f20;fill-opacity:1;fill-rule:nonzero;stroke:none"
               id="text118"><tspan
                 x="0"
                 y="0"
                 id="tspan116">t</tspan></text>
<text
               transform="matrix(1,0,0,-1,114,-22.5)"
               style="font-variant:normal;font-weight:bold;font-size:12px;font-family:'PF Tempesta Five';-inkscape-font-specification:PFTempestaFive-Bold;writing-mode:lr-tb;fill:#231f20;fill-opacity:1;fill-rule:nonzero;stroke:none"
               id="text122"><tspan
                 x="0"
                 y="0"
                 id="tspan120">e</tspan></text>
<text
               transform="matrix(1,0,0,-1,124.5,-22.5)"
               style="font-variant:normal;font-weight:bold;font-size:12px;font-family:'PF Tempesta Five';-inkscape-font-specification:PFTempestaFive-Bold;writing-mode:lr-tb;fill:#231f20;fill-opacity:1;fill-rule:nonzero;stroke:none"
               id="text126"><tspan
                 x="0"
                 y="0"
                 id="tspan124">n</tspan></text>
<text
               transform="matrix(1,0,0,-1,135,-22.5)"
               style="font-variant:normal;font-weight:bold;font-size:12px;font-family:'PF Tempesta Five';-inkscape-font-specification:PFTempestaFive-Bold;writing-mode:lr-tb;fill:#231f20;fill-opacity:1;fill-rule:nonzero;stroke:none"
               id="text130"><tspan
                 x="0"
                 y="0"
                 id="tspan128">t</tspan></text>
<text
               transform="matrix(1,0,0,-1,145.5,-22.5)"
               style="font-variant:normal;font-weight:bold;font-size:12px;font-family:'PF Tempesta Five';-inkscape-font-specification:PFTempestaFive-Bold;writing-mode:lr-tb;fill:#231f20;fill-opacity:1;fill-rule:nonzero;stroke:none"
               id="text134"><tspan
                 x="0"
                 y="0"
                 id="tspan132">_</tspan></text>
</g></g></g><g
         id="g136"><g
           id="g138"
           transform="translate(15.96795,100.0016)"><path
             d="m 99,-26.6546 v -15.2312 c 0,-1.0313 -0.3766,-1.9237 -1.1304,-2.6774 -0.7538,-0.7536 -1.6462,-1.1304 -2.6773,-1.1304 h -3.8077 c -1.031,0 -1.9235,0.3768 -2.6773,1.1304 -0.7538,0.7537 -1.1304,1.6461 -1.1304,2.6774 v 15.2312 c 0,4.2045 -1.4874,7.7941 -4.4621,10.7689 -2.9748,2.9749 -6.5641,4.4623 -10.7686,4.4623 -4.2046,0 -7.7939,-1.4874 -10.7687,-4.4623 -2.9747,-2.9748 -4.4621,-6.5644 -4.4621,-10.7689 V -38.078 h 5.7115 c 1.5868,0 2.9349,-0.5553 4.0457,-1.6659 1.1108,-1.1107 1.6659,-2.4592 1.6659,-4.0458 v -34.2702 c 0,-1.5868 -0.5551,-2.935 -1.6659,-4.0458 -1.1108,-1.1108 -2.4589,-1.666 -4.0457,-1.666 H 5.71154 c -1.58654,0 -2.9351,0.5552 -4.04567,1.666 C 0.55529,-80.9949 0,-79.6467 0,-78.0599 v 34.2702 c 0,1.5866 0.55529,2.9351 1.66587,4.0458 1.11057,1.1106 2.45913,1.6659 4.04567,1.6659 H 45.6923 v 11.4234 c 0,7.3379 2.6079,13.6148 7.8236,18.83076 C 58.7317,-2.60795 65.0086,0 72.3462,0 79.6837,0 85.9604,-2.60795 91.1764,-7.82384 96.3923,-13.0398 99,-19.3167 99,-26.6546 Z"
             style="fill:#231f20;fill-opacity:1;fill-rule:nonzero;stroke:none"
             id="path140"
             inkscape:connector-curvature="0" /></g></g></g></g></svg>