<?xml version="1.0" encoding="UTF-8" standalone="no"?>
<!-- Created with Inkscape (http://www.inkscape.org/) -->

<svg
   xmlns:dc="http://purl.org/dc/elements/1.1/"
   xmlns:cc="http://creativecommons.org/ns#"
   xmlns:rdf="http://www.w3.org/1999/02/22-rdf-syntax-ns#"
   xmlns:svg="http://www.w3.org/2000/svg"
   xmlns="http://www.w3.org/2000/svg"
   xmlns:sodipodi="http://sodipodi.sourceforge.net/DTD/sodipodi-0.dtd"
   xmlns:inkscape="http://www.inkscape.org/namespaces/inkscape"
   width="159.64687mm"
   height="262.93216mm"
   viewBox="0 0 159.64687 262.93216"
   version="1.1"
   id="svg8"
   inkscape:version="0.92.2 (5c3e80d, 2017-08-06)"
   sodipodi:docname="warnings.svg">
  <defs
     id="defs2" />
  <sodipodi:namedview
     id="base"
     pagecolor="#ffffff"
     bordercolor="#666666"
     borderopacity="1.0"
     inkscape:pageopacity="0.0"
     inkscape:pageshadow="2"
     inkscape:zoom="0.35"
     inkscape:cx="-123.75498"
     inkscape:cy="441.49267"
     inkscape:document-units="mm"
     inkscape:current-layer="layer1"
     showgrid="false"
     fit-margin-top="0"
     fit-margin-left="0"
     fit-margin-right="0"
     fit-margin-bottom="0"
     inkscape:window-width="1871"
     inkscape:window-height="1056"
     inkscape:window-x="49"
     inkscape:window-y="24"
     inkscape:window-maximized="1" />
  <metadata
     id="metadata5">
    <rdf:RDF>
      <cc:Work
         rdf:about="">
        <dc:format>image/svg+xml</dc:format>
        <dc:type
           rdf:resource="http://purl.org/dc/dcmitype/StillImage" />
        <dc:title></dc:title>
      </cc:Work>
    </rdf:RDF>
  </metadata>
  <g
     inkscape:label="Layer 1"
     inkscape:groupmode="layer"
     id="layer1"
     transform="translate(3.542209,-2.7127612)">
    <g
       id="g934">
      <path
         style="stroke-width:0.02645833"
         inkscape:connector-curvature="0"
         d="m 26.212077,2.7127612 q 4.81541,0 9.2075,1.8785391 4.39208,1.8785388 7.56708,5.053537 3.175,3.1749997 5.05354,7.5670897 1.87854,4.39208 1.87854,9.2075 0,4.788953 -1.86531,9.181009 -1.86531,4.392056 -5.04031,7.567038 -3.175,3.174982 -7.56708,5.06674 -4.39209,1.891761 -9.23396,1.891761 -4.84188,0 -9.23396,-1.878531 -4.39208,-1.878528 -7.5538494,-5.06674 -3.1617782,-3.188212 -5.0403177,-7.567038 -1.87854,-4.378836 -1.87854,-9.194239 0,-4.81542 1.87854,-9.2075 1.8785395,-4.39209 5.0535377,-7.5670897 3.1749994,-3.1749982 7.5670894,-5.053537 4.39208,-1.8785391 9.2075,-1.8785391 z m 16.37771,35.7451598 q 3.94229,-5.42393 3.94229,-12.038494 0,-4.1275 -1.61396,-7.88459 -1.61396,-3.75708 -4.33917,-6.48229 -2.72521,-2.7251994 -6.48229,-4.3391585 -3.75708,-1.6139591 -7.88458,-1.6139591 -4.1275,0 -7.88459,1.6139591 -3.75708,1.6139591 -6.48229,4.3391585 -2.7252094,2.72521 -4.3391585,6.48229 -1.6139591,3.75709 -1.6139591,7.88459 0,6.614564 3.9422879,12.038494 1.7462497,-8.651832 8.0962497,-8.651832 3.46604,3.386652 8.28146,3.386652 4.81541,0 8.28146,-3.386652 6.35,0 8.09625,8.651832 z m -6.21771,-17.118494 q 0,-4.20688 -2.97656,-7.18344 -2.97657,-2.97656 -7.18344,-2.97656 -4.20688,0 -7.18344,2.97656 -2.97656,2.97656 -2.97656,7.18344 0,4.20687 2.97656,7.18344 2.97656,2.976553 7.18344,2.976553 4.20687,0 7.18344,-2.976553 2.97656,-2.97657 2.97656,-7.18344 z"
         id="path837" />
      <text
         id="text861"
         y="30.773453"
         x="52.701149"
         style="font-style:normal;font-variant:normal;font-weight:normal;font-stretch:normal;font-size:16.22777748px;line-height:10.00000015%;font-family:Roboto;-inkscape-font-specification:'Roboto, Normal';font-variant-ligatures:normal;font-variant-caps:normal;font-variant-numeric:normal;font-feature-settings:normal;text-align:start;letter-spacing:0px;word-spacing:0px;writing-mode:lr-tb;text-anchor:start;fill:#000000;fill-opacity:1;stroke:none;stroke-width:0.26458332px;stroke-linecap:butt;stroke-linejoin:miter;stroke-opacity:1"
         xml:space="preserve"><tspan
           style="font-style:normal;font-variant:normal;font-weight:normal;font-stretch:normal;font-size:16.22777748px;font-family:Roboto;-inkscape-font-specification:'Roboto, Normal';font-variant-ligatures:normal;font-variant-caps:normal;font-variant-numeric:normal;font-feature-settings:normal;text-align:start;writing-mode:lr-tb;text-anchor:start;stroke-width:0.26458332px"
           y="30.773453"
           x="52.701149"
           id="tspan859"
           sodipodi:role="line">3+ Players</tspan></text>
    </g>
    <g
       id="g929">
      <path
         style="stroke-width:0.02645833"
         inkscape:connector-curvature="0"
         d="M 5.8920794,115.18798 H 43.145407 V 88.094709 H 5.8920794 Z M 16.052077,83.014739 v -7.619948 q 0,-0.370417 -0.23812,-0.608547 -0.23813,-0.238117 -0.60855,-0.238117 h -1.69333 q -0.37042,0 -0.60854,0.238117 -0.23813,0.23813 -0.23813,0.608547 v 7.619948 q 0,0.370417 0.23813,0.608544 0.23812,0.23812 0.60854,0.23812 h 1.69333 q 0.37042,0 0.60855,-0.23812 0.23812,-0.238127 0.23812,-0.608544 z m 20.32,0 v -7.619948 q 0,-0.370417 -0.23812,-0.608547 -0.23813,-0.238117 -0.60855,-0.238117 h -1.69333 q -0.37042,0 -0.60854,0.238117 -0.23813,0.23813 -0.23813,0.608547 v 7.619948 q 0,0.370417 0.23813,0.608544 0.23812,0.23812 0.60854,0.23812 h 1.69333 q 0.37042,0 0.60855,-0.23812 0.23812,-0.238127 0.23812,-0.608544 z m 10.16,-1.693321 v 33.866562 q 0,1.37583 -1.00542,2.38125 -1.00541,1.00541 -2.38125,1.00541 H 5.8920794 q -1.3758295,0 -2.3812495,-1.00541 -1.00542,-1.00542 -1.00542,-2.38125 V 81.321418 q 0,-1.375824 1.00542,-2.381238 1.00542,-1.005414 2.3812495,-1.005414 h 3.3866682 v -2.539975 q 0,-1.746241 1.2435394,-2.989782 1.24354,-1.243534 2.98979,-1.243534 h 1.69333 q 1.74625,0 2.9898,1.243534 1.24354,1.243541 1.24354,2.989782 v 2.539975 h 10.16 v -2.539975 q 0,-1.746241 1.24354,-2.989782 1.24354,-1.243534 2.98979,-1.243534 h 1.69333 q 1.74625,0 2.9898,1.243534 1.24354,1.243541 1.24354,2.989782 v 2.539975 h 3.38666 q 1.37584,0 2.38125,1.005414 1.00542,1.005414 1.00542,2.381238 z"
         id="path815" />
      <text
         id="text865"
         y="99.028008"
         x="52.098946"
         style="font-style:normal;font-variant:normal;font-weight:normal;font-stretch:normal;font-size:16.22777748px;line-height:10.00000015%;font-family:Roboto;-inkscape-font-specification:'Roboto, Normal';font-variant-ligatures:normal;font-variant-caps:normal;font-variant-numeric:normal;font-feature-settings:normal;text-align:start;letter-spacing:0px;word-spacing:0px;writing-mode:lr-tb;text-anchor:start;fill:#000000;fill-opacity:1;stroke:none;stroke-width:0.26458332px;stroke-linecap:butt;stroke-linejoin:miter;stroke-opacity:1"
         xml:space="preserve"><tspan
           style="font-style:normal;font-variant:normal;font-weight:normal;font-stretch:normal;font-size:16.22777748px;font-family:Roboto;-inkscape-font-specification:'Roboto, Normal';font-variant-ligatures:normal;font-variant-caps:normal;font-variant-numeric:normal;font-feature-settings:normal;text-align:start;writing-mode:lr-tb;text-anchor:start;stroke-width:0.26458332px"
           y="99.028008"
           x="52.098946"
           id="tspan863"
           sodipodi:role="line">18+ Age</tspan></text>
    </g>
    <g
       id="g924">
      <path
         style="stroke-width:0.02645833"
         inkscape:connector-curvature="0"
         d="m 26.212067,150.61693 v 11.85334 q 0,0.37041 -0.23812,0.60854 -0.23813,0.23812 -0.60854,0.23812 h -8.46667 q -0.37042,0 -0.60854,-0.23812 -0.23813,-0.23813 -0.23813,-0.60854 v -1.69334 q 0,-0.37041 0.23813,-0.60854 0.23812,-0.23812 0.60854,-0.23812 h 5.92667 v -9.31334 q 0,-0.37041 0.23812,-0.60854 0.23813,-0.23812 0.60854,-0.23812 h 1.69334 q 0.37041,0 0.60854,0.23812 0.23812,0.23813 0.23812,0.60854 z m 11.00667,9.31334 q 0,-3.91584 -1.93146,-7.22313 -1.93146,-3.30729 -5.23875,-5.23875 -3.30729,-1.93146 -7.22312,-1.93146 -3.91584,0 -7.22313,1.93146 -3.30729,1.93146 -5.23875,5.23875 -1.9314591,3.30729 -1.9314591,7.22313 0,3.91583 1.9314591,7.22312 1.93146,3.30729 5.23875,5.23875 3.30729,1.93146 7.22313,1.93146 3.91583,0 7.22312,-1.93146 3.30729,-1.93146 5.23875,-5.23875 1.93146,-3.30729 1.93146,-7.22312 z m 5.92667,0 q 0,5.52979 -2.72521,10.19968 -2.72521,4.6699 -7.3951,7.39511 -4.6699,2.72521 -10.19969,2.72521 -5.52979,0 -10.19969,-2.72521 -4.6698988,-2.72521 -7.3950971,-7.39511 -2.72521,-4.66989 -2.72521,-10.19968 0,-5.52979 2.72521,-10.19969 2.7251983,-4.6699 7.3950971,-7.3951 4.6699,-2.72521 10.19969,-2.72521 5.52979,0 10.19969,2.72521 4.66989,2.7252 7.3951,7.3951 2.72521,4.6699 2.72521,10.19969 z"
         id="path826" />
      <text
         id="text869"
         y="165.69873"
         x="52.701149"
         style="font-style:normal;font-variant:normal;font-weight:normal;font-stretch:normal;font-size:16.22777748px;line-height:10.00000015%;font-family:Roboto;-inkscape-font-specification:'Roboto, Normal';font-variant-ligatures:normal;font-variant-caps:normal;font-variant-numeric:normal;font-feature-settings:normal;text-align:start;letter-spacing:0px;word-spacing:0px;writing-mode:lr-tb;text-anchor:start;fill:#000000;fill-opacity:1;stroke:none;stroke-width:0.26458332px;stroke-linecap:butt;stroke-linejoin:miter;stroke-opacity:1"
         xml:space="preserve"><tspan
           style="font-style:normal;font-variant:normal;font-weight:normal;font-stretch:normal;font-size:16.22777748px;font-family:Roboto;-inkscape-font-specification:'Roboto, Normal';font-variant-ligatures:normal;font-variant-caps:normal;font-variant-numeric:normal;font-feature-settings:normal;text-align:start;writing-mode:lr-tb;text-anchor:start;stroke-width:0.26458332px"
           y="165.69873"
           x="52.701149"
           id="tspan867"
           sodipodi:role="line">30+ minutes</tspan></text>
    </g>
    <text
       xml:space="preserve"
       style="font-style:normal;font-variant:normal;font-weight:normal;font-stretch:normal;font-size:13.40555573px;line-height:10.00000015%;font-family:Roboto;-inkscape-font-specification:'Roboto, Normal';font-variant-ligatures:normal;font-variant-caps:normal;font-variant-numeric:normal;font-feature-settings:normal;text-align:start;letter-spacing:0px;word-spacing:0px;writing-mode:lr-tb;text-anchor:start;fill:#000000;fill-opacity:1;stroke:none;stroke-width:0.26458332px;stroke-linecap:butt;stroke-linejoin:miter;stroke-opacity:1"
       x="58.964291"
       y="280.36905"
       id="text873"><tspan
         sodipodi:role="line"
         x="58.964291"
         y="284.98755"
         style="font-style:normal;font-variant:normal;font-weight:normal;font-stretch:normal;font-size:13.40555573px;font-family:Roboto;-inkscape-font-specification:'Roboto, Normal';font-variant-ligatures:normal;font-variant-caps:normal;font-variant-numeric:normal;font-feature-settings:normal;text-align:start;writing-mode:lr-tb;text-anchor:start;stroke-width:0.26458332px"
         id="tspan875" /></text>
    <flowRoot
       xml:space="preserve"
       id="flowRoot887"
       style="font-style:normal;font-variant:normal;font-weight:normal;font-stretch:normal;font-size:50.66666794px;line-height:10.00000015%;font-family:Roboto;-inkscape-font-specification:'Roboto, Normal';font-variant-ligatures:normal;font-variant-caps:normal;font-variant-numeric:normal;font-feature-settings:normal;text-align:start;letter-spacing:0px;word-spacing:0px;writing-mode:lr-tb;text-anchor:start;fill:#000000;fill-opacity:1;stroke:none;stroke-width:1px;stroke-linecap:butt;stroke-linejoin:miter;stroke-opacity:1"
       transform="scale(0.26458333)"><flowRegion
         id="flowRegion889"
         style="font-style:normal;font-variant:normal;font-weight:normal;font-stretch:normal;font-size:50.66666794px;font-family:Roboto;-inkscape-font-specification:'Roboto, Normal';font-variant-ligatures:normal;font-variant-caps:normal;font-variant-numeric:normal;font-feature-settings:normal;text-align:start;writing-mode:lr-tb;text-anchor:start"><rect
           id="rect891"
           width="871.42859"
           height="477.14285"
           x="-1102.8572"
           y="362.51968"
           style="font-style:normal;font-variant:normal;font-weight:normal;font-stretch:normal;font-size:50.66666794px;font-family:Roboto;-inkscape-font-specification:'Roboto, Normal';font-variant-ligatures:normal;font-variant-caps:normal;font-variant-numeric:normal;font-feature-settings:normal;text-align:start;writing-mode:lr-tb;text-anchor:start" /></flowRegion><flowPara
         id="flowPara893"></flowPara></flowRoot>    <g
       id="g919">
      <path
         style="stroke-width:0.02645833"
         inkscape:connector-curvature="0"
         d="m 23.57791,233.35692 v -5.02708 q 0,-0.37042 -0.25135,-0.62177 -0.25135,-0.25135 -0.59531,-0.25135 h -5.08 q -0.34396,0 -0.59531,0.25135 -0.25136,0.25135 -0.25136,0.62177 v 5.02708 q 0,0.37042 0.25136,0.62178 0.25135,0.25135 0.59531,0.25135 h 5.08 q 0.34396,0 0.59531,-0.25135 0.25135,-0.25136 0.25135,-0.62178 z m -0.0529,-9.89541 0.47625,-12.14438 q 0,-0.3175 -0.26459,-0.5027 -0.34395,-0.29105 -0.635,-0.29105 h -5.82084 q -0.29104,0 -0.635,0.29105 -0.26458,0.1852 -0.26458,0.55562 l 0.44979,12.09146 q 0,0.26458 0.26458,0.43656 0.26459,0.17198 0.635,0.17198 h 4.89479 q 0.37042,0 0.62178,-0.17198 0.25135,-0.17198 0.27781,-0.43656 z m -0.37042,-24.71208 20.32,37.25333 q 0.92604,1.66687 -0.0529,3.33375 -0.44979,0.76729 -1.23031,1.21708 -0.78052,0.44979 -1.6801,0.44979 H -0.12871721 q -0.89957959,0 -1.68010949,-0.44979 -0.7805201,-0.44979 -1.23031,-1.21708 -0.9789601,-1.66688 -0.0529,-3.33375 L 17.22795,198.74943 q 0.4498,-0.82021 1.24355,-1.29646 0.79375,-0.47625 1.71979,-0.47625 0.92604,0 1.71979,0.47625 0.79375,0.47625 1.24354,1.29646 z"
         id="path848" />
      <flowRoot
         transform="matrix(0.26458333,0,0,0.26458333,-8.3910749,-110.67153)"
         style="font-style:normal;font-weight:normal;font-size:40px;line-height:10.00000015%;font-family:Sans;letter-spacing:0px;word-spacing:0px;fill:#000000;fill-opacity:1;stroke:none;stroke-width:1px;stroke-linecap:butt;stroke-linejoin:miter;stroke-opacity:1"
         id="flowRoot895"
         xml:space="preserve"><flowRegion
           id="flowRegion897"><rect
             y="1128.234"
             x="225.71428"
             height="331.42853"
             width="528.57147"
             id="rect899" /></flowRegion><flowPara
           style="font-style:normal;font-variant:normal;font-weight:normal;font-stretch:normal;font-size:61.33333588px;line-height:100%;font-family:Roboto;-inkscape-font-specification:'Roboto, Normal';font-variant-ligatures:normal;font-variant-caps:normal;font-variant-numeric:normal;font-feature-settings:normal;text-align:start;writing-mode:lr-tb;text-anchor:start"
           id="flowPara901">May cause laughter,  re-evaluation of career choices</flowPara><flowPara
           style="font-style:normal;font-variant:normal;font-weight:normal;font-stretch:normal;font-size:61.33333588px;line-height:100%;font-family:Roboto;-inkscape-font-specification:'Roboto, Normal';font-variant-ligatures:normal;font-variant-caps:normal;font-variant-numeric:normal;font-feature-settings:normal;text-align:start;writing-mode:lr-tb;text-anchor:start"
           id="flowPara908"> </flowPara><flowPara
           style="font-style:normal;font-variant:normal;font-weight:normal;font-stretch:normal;font-size:61.33333588px;line-height:100%;font-family:Roboto;-inkscape-font-specification:'Roboto, Normal';font-variant-ligatures:normal;font-variant-caps:normal;font-variant-numeric:normal;font-feature-settings:normal;text-align:start;writing-mode:lr-tb;text-anchor:start"
           id="flowPara910" /></flowRoot>    </g>
  </g>
</svg>
